<?xml version="1.0" encoding="utf-8"?>
<!-- Generator: Adobe Illustrator 21.0.0, SVG Export Plug-In . SVG Version: 6.00 Build 0)  -->
<svg version="1.1" id="Livello_1" xmlns="http://www.w3.org/2000/svg" xmlns:xlink="http://www.w3.org/1999/xlink" x="0px" y="0px"
	 viewBox="0 0 99.2 23.5" style="enable-background:new 0 0 99.2 23.5;" xml:space="preserve">
<style type="text/css">
	.st0{fill:#FFFFFF;}
</style>
<g>
	<path class="st0" d="M36.3,7.8c0.9,0,1.8,0.3,2.5,0.9l0,0c0.2,0.1,0.5,0.1,0.6-0.1c0.1-0.1,0.1-0.2,0.1-0.3c0-0.1-0.1-0.2-0.2-0.3
		c-0.9-0.7-2-1.1-3.1-1.1c-2.7,0-4.9,2.1-4.9,4.8c0,2.6,2.2,4.8,4.9,4.8c1.1,0,2.2-0.4,3.1-1c0.1-0.1,0.1-0.2,0.2-0.3l0-3.2
		c0-0.2-0.2-0.4-0.4-0.5h-2.9c-0.3,0-0.5,0.2-0.5,0.5c0,0.3,0.2,0.4,0.5,0.4h2.4v2.5c-0.7,0.5-1.5,0.7-2.3,0.7c-2.2,0-4-1.8-4-3.9
		C32.3,9.5,34.1,7.8,36.3,7.8z"/>
	<path class="st0" d="M46.9,7.9c0.3,0,0.4-0.2,0.4-0.5c0-0.2-0.2-0.4-0.4-0.4h-4.7c-0.2,0-0.4,0.2-0.4,0.4V16c0,0.2,0.2,0.4,0.4,0.4
		h4.8c0.2,0,0.4-0.2,0.4-0.4c0-0.3-0.2-0.5-0.4-0.5h-4.3v-3.4h3.7c0.2,0,0.4-0.2,0.4-0.4c0-0.3-0.2-0.5-0.4-0.5h-3.7V7.9H46.9z"/>
	<path class="st0" d="M54.7,7h-6.2C48.2,7,48,7.2,48,7.4c0,0.3,0.2,0.5,0.4,0.5h2.6V16c0,0.2,0.2,0.4,0.4,0.4S52,16.3,52,16V7.9h2.6
		c0.2,0,0.4-0.2,0.4-0.5C55.1,7.2,54.9,7,54.7,7z"/>
	<path class="st0" d="M63.8,7L63.8,7c-0.3,0-0.5,0.1-0.7,0.4l-2.5,3.5l-2.5-3.5C57.9,7.1,57.6,7,57.4,7h0c-0.5,0-0.9,0.4-0.9,0.9
		v7.8c0,0.5,0.4,0.9,0.9,0.9c0.5,0,0.9-0.4,0.9-0.9v-5.1l1.7,2.3c0.2,0.2,0.4,0.4,0.7,0.4h0c0.3,0,0.5-0.1,0.7-0.4l1.7-2.3v5.1
		c0,0.5,0.4,0.9,0.9,0.9c0.5,0,0.9-0.4,0.9-0.9V7.9C64.7,7.4,64.3,7,63.8,7z"/>
	<path class="st0" d="M73.3,7.3c-0.4-0.3-0.9-0.2-1.2,0.2l-2.1,2.9l-2.1-2.9c-0.1-0.2-0.3-0.3-0.5-0.3c-0.2,0-0.5,0-0.7,0.2
		c-0.2,0.1-0.3,0.3-0.3,0.6c0,0.2,0,0.4,0.2,0.6l2.6,3.7v3.5c0,0.5,0.4,0.9,0.9,0.9c0.5,0,0.9-0.4,0.9-0.9v-3.5l2.7-3.7l0,0
		C73.7,8.1,73.6,7.5,73.3,7.3z"/>
	<path class="st0" d="M78.5,7.8c0.9,0,1.8,0.3,2.5,0.9c0.1,0.1,0.2,0.1,0.3,0.1c0.1,0,0.2-0.1,0.3-0.2c0.1-0.1,0.1-0.2,0.1-0.3
		c0-0.1-0.1-0.3-0.2-0.3c-0.9-0.7-2-1-3.1-1h0c-1.3,0-2.6,0.5-3.5,1.4c-0.9,0.9-1.4,2.1-1.4,3.4c0,2.6,2.2,4.8,4.9,4.8
		c1.1,0,2.2-0.4,3-1c0.1-0.1,0.2-0.2,0.2-0.3c0-0.1,0-0.2-0.1-0.3c-0.1-0.1-0.1-0.2-0.3-0.2c-0.1,0-0.3,0-0.4,0.1l0,0
		c-0.7,0.6-1.5,0.9-2.5,0.9c-2.2,0-4-1.7-4-3.9C74.4,9.5,76.3,7.8,78.5,7.8z"/>
	<path class="st0" d="M86.6,7.3C86.6,7.2,86.4,7,86.2,7c-0.2,0-0.4,0.1-0.4,0.3l-3.2,8.5c-0.1,0.2,0,0.5,0.3,0.6l0,0h0
		c0,0,0,0,0.1,0c0,0,0.1,0,0.1,0c0.2,0,0.4-0.1,0.4-0.3l0.8-2.1h4l0.8,2.1c0.1,0.2,0.2,0.3,0.4,0.3c0,0,0,0,0.1,0c0,0,0,0,0,0h0l0,0
		c0.2-0.1,0.3-0.4,0.2-0.6L86.6,7.3z M87.9,13.2h-3.4l1.7-4.5L87.9,13.2z"/>
	<path class="st0" d="M96.9,15.7L96.9,15.7c-0.1-0.2-0.2-0.3-0.4-0.3c0,0,0-0.1-0.1-0.1c-0.1-0.2-0.1-0.5-0.1-1
		c0-1.2-0.8-1.9-1.2-2.1c0.8-0.5,1.4-1.4,1.4-2.4c0-1.5-1.2-2.8-2.7-2.8h-2.6l-0.1,0c-0.2,0-0.4,0.2-0.4,0.4V16
		c0,0.2,0.2,0.4,0.4,0.4c0.3,0,0.5-0.2,0.5-0.4v-3.5h2.1c0,0,0,0,0,0l0,0c0.2,0,0.6,0.2,1,0.4c0.5,0.4,0.7,0.8,0.7,1.3
		c0,0.7,0.1,1.2,0.3,1.6c0.2,0.3,0.5,0.5,0.7,0.5h0c0.1,0,0.1,0,0.2,0l0,0l0,0C96.8,16.2,97,16,96.9,15.7z M95.6,9.8
		c0,1-0.8,1.8-1.8,1.9h-2.2V7.9h2.1C94.7,7.9,95.6,8.7,95.6,9.8z"/>
	<path class="st0" d="M25.4,15c0.7-1.1,1.2-2.3,1.3-3.6l0-0.1H25l0,0.1c-0.4,2.9-2.8,5.2-5.8,5.5l-0.1,0l0,1.7l0.1,0
		c1.1-0.1,2.1-0.3,3.1-0.8c0,0,0,0.1,0,0.1c0,1.5,1.3,2.8,2.8,2.8s2.8-1.3,2.8-2.8C27.9,16.3,26.8,15.1,25.4,15z M25.1,18.9
		c-0.6,0-1.1-0.5-1.1-1.1s0.5-1.1,1.1-1.1c0.6,0,1.1,0.5,1.1,1.1S25.7,18.9,25.1,18.9z"/>
	<path class="st0" d="M7.4,13.7l-1.9,0C5.2,13.8,5,14,5,14.3c0,0.1,0.1,0.3,0.2,0.4c0.1,0.1,0.2,0.2,0.4,0.2l1.9,0
		c0.3,0,0.5-0.2,0.5-0.5c0-0.1-0.1-0.3-0.2-0.4C7.7,13.8,7.6,13.7,7.4,13.7z"/>
	<path class="st0" d="M7.4,12.2l-3.6,0c-0.3,0-0.5,0.2-0.5,0.5c0,0.1,0.1,0.3,0.2,0.4c0.1,0.1,0.2,0.2,0.4,0.2l3.6,0
		C7.7,13.3,8,13,8,12.7c0-0.1-0.1-0.3-0.2-0.4C7.7,12.3,7.6,12.2,7.4,12.2z"/>
	<path class="st0" d="M7.4,10.7L7.4,10.7l-5.2,0c-0.3,0-0.5,0.2-0.5,0.5c0,0.1,0.1,0.3,0.2,0.4c0.1,0.1,0.2,0.2,0.4,0.2l5.2,0
		c0.3,0,0.5-0.2,0.5-0.5c0-0.1-0.1-0.3-0.2-0.4C7.7,10.7,7.6,10.7,7.4,10.7z"/>
	<path class="st0" d="M18.2,16.8c-2.9-0.2-5.4-2.5-5.8-5.5l0-0.1h-1.7l0,0.1c0.1,1.3,0.6,2.5,1.3,3.6c-1.4,0.1-2.5,1.4-2.5,2.8
		c0,1.5,1.3,2.8,2.8,2.8c1.5,0,2.8-1.3,2.8-2.8c0,0,0-0.1,0-0.1c1,0.5,2,0.8,3.1,0.8l0.1,0l0-1.7L18.2,16.8z M12.3,16.7
		c0.6,0,1.1,0.5,1.1,1.1s-0.5,1.1-1.1,1.1c-0.6,0-1.1-0.5-1.1-1.1S11.7,16.7,12.3,16.7z"/>
	<path class="st0" d="M24.2,7.3l-1,0.5l3.3,2.4l0.4-4l-1.1,0.5c-1.6-3-4.9-4.7-8.3-4.1C14,3,11.3,5.7,10.8,9.2l-0.1,0.7l1.7,0
		l0.1-0.4c0.4-2.7,2.6-4.9,5.3-5.3C20.3,3.8,22.9,5,24.2,7.3z"/>
	<path class="st0" d="M19.8,7.1v1.8c0,0.5,0.4,0.8,0.8,0.8c0.5,0,0.8-0.4,0.8-0.8V7.1c0-0.5-0.4-0.8-0.8-0.8
		C20.2,6.2,19.8,6.6,19.8,7.1z"/>
	<path class="st0" d="M17,8.9V7.1c0-0.5-0.4-0.8-0.8-0.8c-0.5,0-0.8,0.4-0.8,0.8v1.8c0,0.5,0.4,0.8,0.8,0.8C16.6,9.7,17,9.4,17,8.9z
		"/>
</g>
</svg>
